<mxfile host="app.diagrams.net" agent="Mozilla/5.0 (Windows NT 10.0; Win64; x64) AppleWebKit/537.36 (KHTML, like Gecko) Chrome/127.0.0.0 Safari/537.36 Edg/127.0.0.0" version="24.7.7">
  <diagram name="Seite-1" id="V7yUvjEQwU2J-LxVKI-b">
    <mxGraphModel dx="872" dy="479" grid="1" gridSize="10" guides="1" tooltips="1" connect="1" arrows="1" fold="1" page="1" pageScale="1" pageWidth="827" pageHeight="1169" math="0" shadow="0">
      <root>
        <mxCell id="0" />
        <mxCell id="1" parent="0" />
        <mxCell id="F_ajcUoTDbNSYC28oHAO-9" value="" style="rounded=0;whiteSpace=wrap;html=1;" vertex="1" parent="1">
          <mxGeometry x="150" y="80" width="410" height="440" as="geometry" />
        </mxCell>
        <mxCell id="F_ajcUoTDbNSYC28oHAO-7" value="" style="rounded=0;whiteSpace=wrap;html=1;fillColor=#f5f5f5;strokeColor=#666666;fontColor=#333333;" vertex="1" parent="1">
          <mxGeometry x="170" y="170" width="370" height="320" as="geometry" />
        </mxCell>
        <mxCell id="F_ajcUoTDbNSYC28oHAO-1" value="Find and refactor all data clumps in the given files" style="rounded=1;whiteSpace=wrap;html=1;fillColor=#dae8fc;strokeColor=#6c8ebf;" vertex="1" parent="1">
          <mxGeometry x="310" y="100" width="190" height="60" as="geometry" />
        </mxCell>
        <mxCell id="F_ajcUoTDbNSYC28oHAO-2" value="File 1" style="rounded=1;whiteSpace=wrap;html=1;fillColor=#dae8fc;strokeColor=#6c8ebf;" vertex="1" parent="1">
          <mxGeometry x="310" y="180" width="190" height="60" as="geometry" />
        </mxCell>
        <mxCell id="F_ajcUoTDbNSYC28oHAO-3" value="File 2" style="rounded=1;whiteSpace=wrap;html=1;fillColor=#dae8fc;strokeColor=#6c8ebf;" vertex="1" parent="1">
          <mxGeometry x="310" y="260" width="190" height="60" as="geometry" />
        </mxCell>
        <mxCell id="F_ajcUoTDbNSYC28oHAO-4" value="File 3" style="rounded=1;whiteSpace=wrap;html=1;fillColor=#dae8fc;strokeColor=#6c8ebf;" vertex="1" parent="1">
          <mxGeometry x="310" y="340" width="190" height="60" as="geometry" />
        </mxCell>
        <mxCell id="F_ajcUoTDbNSYC28oHAO-5" value="The source code contains classes and method to perform..." style="rounded=1;whiteSpace=wrap;html=1;fillColor=#f5f5f5;fontColor=#333333;strokeColor=#666666;" vertex="1" parent="1">
          <mxGeometry x="190" y="410" width="190" height="60" as="geometry" />
        </mxCell>
      </root>
    </mxGraphModel>
  </diagram>
</mxfile>
